HIERARCHY
ROOT Hips
{
  OFFSET 0.00 100.00 0.00
  CHANNELS 6 Xposition Yposition Zposition Zrotation Xrotation Yrotation
  JOINT Spine
  {
    OFFSET 0.00 10.00 0.00
    CHANNELS 3 Zrotation Xrotation Yrotation
    JOINT Spine1
    {
      OFFSET 0.00 12.00 0.00
      CHANNELS 3 Zrotation Xrotation Yrotation
      JOINT Neck
      {
        OFFSET 0.00 14.00 0.00
        CHANNELS 3 Zrotation Xrotation Yrotation
        JOINT Head
        {
          OFFSET 0.00 8.00 0.00
          CHANNELS 3 Zrotation Xrotation Yrotation
          End Site
          {
            OFFSET 0.00 8.00 0.00
          }
        }
      }
      JOINT LeftShoulder
      {
        OFFSET 4.00 10.00 0.00
        CHANNELS 3 Zrotation Xrotation Yrotation
        JOINT LeftArm
        {
          OFFSET 12.00 0.00 0.00
          CHANNELS 3 Zrotation Xrotation Yrotation
          JOINT LeftForeArm
          {
            OFFSET 25.00 0.00 0.00
            CHANNELS 3 Zrotation Xrotation Yrotation
            JOINT LeftHand
            {
              OFFSET 22.00 0.00 0.00
              CHANNELS 3 Zrotation Xrotation Yrotation
              End Site
              {
                OFFSET 8.00 0.00 0.00
              }
            }
          }
        }
      }
      JOINT RightShoulder
      {
        OFFSET -4.00 10.00 0.00
        CHANNELS 3 Zrotation Xrotation Yrotation
        JOINT RightArm
        {
          OFFSET -12.00 0.00 0.00
          CHANNELS 3 Zrotation Xrotation Yrotation
          JOINT RightForeArm
          {
            OFFSET -25.00 0.00 0.00
            CHANNELS 3 Zrotation Xrotation Yrotation
            JOINT RightHand
            {
              OFFSET -22.00 0.00 0.00
              CHANNELS 3 Zrotation Xrotation Yrotation
              End Site
              {
                OFFSET -8.00 0.00 0.00
              }
            }
          }
        }
      }
    }
  }
  JOINT LeftUpLeg
  {
    OFFSET 8.00 -5.00 0.00
    CHANNELS 3 Zrotation Xrotation Yrotation
    JOINT LeftLeg
    {
      OFFSET 0.00 -40.00 0.00
      CHANNELS 3 Zrotation Xrotation Yrotation
      JOINT LeftFoot
      {
        OFFSET 0.00 -40.00 0.00
        CHANNELS 3 Zrotation Xrotation Yrotation
        End Site
        {
          OFFSET 0.00 -5.00 10.00
        }
      }
    }
  }
  JOINT RightUpLeg
  {
    OFFSET -8.00 -5.00 0.00
    CHANNELS 3 Zrotation Xrotation Yrotation
    JOINT RightLeg
    {
      OFFSET 0.00 -40.00 0.00
      CHANNELS 3 Zrotation Xrotation Yrotation
      JOINT RightFoot
      {
        OFFSET 0.00 -40.00 0.00
        CHANNELS 3 Zrotation Xrotation Yrotation
        End Site
        {
          OFFSET 0.00 -5.00 10.00
        }
      }
    }
  }
}
MOTION
Frames: 16
Frame Time: 0.033333
0.0000 100.0000 0.0000 0.0000 0.0000 0.0000 0.0000 0.0000 0.0000 0.0000 0.0000 0.0000 0.0000 0.0000 0.0000 0.0000 0.0000 0.0000 0.0000 0.0000 0.0000 0.0000 -40.0000 0.0000 0.0000 -0.0000 0.0000 0.0000 0.0000 0.0000 0.0000 0.0000 0.0000 0.0000 -40.0000 0.0000 0.0000 -0.0000 0.0000 0.0000 0.0000 0.0000 0.0000 0.0000 0.0000 0.0000 0.0000 0.0000 0.0000 0.0000 0.0000 0.0000 0.0000 0.0000 0.0000 0.0000 0.0000 0.0000 0.0000 0.0000
0.0000 100.0000 0.0000 0.6540 0.0000 0.0000 1.9579 0.0000 0.0000 0.0000 0.0000 0.0000 0.0000 0.0000 0.0000 0.0000 0.0000 0.0000 0.0000 0.0000 0.0000 0.0000 -45.2210 0.0000 0.0000 -3.9158 0.0000 0.0000 0.0000 0.0000 0.0000 0.0000 0.0000 0.0000 -45.2210 0.0000 0.0000 3.9158 0.0000 0.0000 0.0000 0.0000 0.0000 0.0000 0.0000 0.0000 0.0000 0.0000 0.0000 0.0000 0.0000 0.0000 0.0000 0.0000 0.0000 0.0000 0.0000 0.0000 0.0000 0.0000
0.0000 100.0000 0.0000 1.3053 0.0000 0.0000 3.8823 0.0000 0.0000 0.0000 0.0000 0.0000 0.0000 0.0000 0.0000 0.0000 0.0000 0.0000 0.0000 0.0000 0.0000 0.0000 -50.3528 0.0000 0.0000 -7.7646 0.0000 0.0000 0.0000 0.0000 0.0000 0.0000 0.0000 0.0000 -50.3528 0.0000 0.0000 7.7646 0.0000 0.0000 0.0000 0.0000 0.0000 0.0000 0.0000 0.0000 0.0000 0.0000 0.0000 0.0000 0.0000 0.0000 0.0000 0.0000 0.0000 0.0000 0.0000 0.0000 0.0000 0.0000
0.0000 100.0000 0.0000 1.9509 0.0000 0.0000 5.7403 0.0000 0.0000 0.0000 0.0000 0.0000 0.0000 0.0000 0.0000 0.0000 0.0000 0.0000 0.0000 0.0000 0.0000 0.0000 -55.3073 0.0000 0.0000 -11.4805 0.0000 0.0000 0.0000 0.0000 0.0000 0.0000 0.0000 0.0000 -55.3073 0.0000 0.0000 11.4805 0.0000 0.0000 0.0000 0.0000 0.0000 0.0000 0.0000 0.0000 0.0000 0.0000 0.0000 0.0000 0.0000 0.0000 0.0000 0.0000 0.0000 0.0000 0.0000 0.0000 0.0000 0.0000
0.0000 100.0000 0.0000 2.5882 0.0000 0.0000 7.5000 0.0000 0.0000 0.0000 0.0000 0.0000 0.0000 0.0000 0.0000 0.0000 0.0000 0.0000 0.0000 0.0000 0.0000 0.0000 -60.0000 0.0000 0.0000 -15.0000 0.0000 0.0000 0.0000 0.0000 0.0000 0.0000 0.0000 0.0000 -60.0000 0.0000 0.0000 15.0000 0.0000 0.0000 0.0000 0.0000 0.0000 0.0000 0.0000 0.0000 0.0000 0.0000 0.0000 0.0000 0.0000 0.0000 0.0000 0.0000 0.0000 0.0000 0.0000 0.0000 0.0000 0.0000
0.0000 100.0000 0.0000 3.2144 0.0000 0.0000 9.1314 0.0000 0.0000 0.0000 0.0000 0.0000 0.0000 0.0000 0.0000 0.0000 0.0000 0.0000 0.0000 0.0000 0.0000 0.0000 -64.3505 0.0000 0.0000 -18.2628 0.0000 0.0000 0.0000 0.0000 0.0000 0.0000 0.0000 0.0000 -64.3505 0.0000 0.0000 18.2628 0.0000 0.0000 0.0000 0.0000 0.0000 0.0000 0.0000 0.0000 0.0000 0.0000 0.0000 0.0000 0.0000 0.0000 0.0000 0.0000 0.0000 0.0000 0.0000 0.0000 0.0000 0.0000
0.0000 100.0000 0.0000 3.8268 0.0000 0.0000 10.6066 0.0000 0.0000 0.0000 0.0000 0.0000 0.0000 0.0000 0.0000 0.0000 0.0000 0.0000 0.0000 0.0000 0.0000 0.0000 -68.2843 0.0000 0.0000 -21.2132 0.0000 0.0000 0.0000 0.0000 0.0000 0.0000 0.0000 0.0000 -68.2843 0.0000 0.0000 21.2132 0.0000 0.0000 0.0000 0.0000 0.0000 0.0000 0.0000 0.0000 0.0000 0.0000 0.0000 0.0000 0.0000 0.0000 0.0000 0.0000 0.0000 0.0000 0.0000 0.0000 0.0000 0.0000
0.0000 100.0000 0.0000 4.4229 0.0000 0.0000 11.9003 0.0000 0.0000 0.0000 0.0000 0.0000 0.0000 0.0000 0.0000 0.0000 0.0000 0.0000 0.0000 0.0000 0.0000 0.0000 -71.7341 0.0000 0.0000 -23.8006 0.0000 0.0000 0.0000 0.0000 0.0000 0.0000 0.0000 0.0000 -71.7341 0.0000 0.0000 23.8006 0.0000 0.0000 0.0000 0.0000 0.0000 0.0000 0.0000 0.0000 0.0000 0.0000 0.0000 0.0000 0.0000 0.0000 0.0000 0.0000 0.0000 0.0000 0.0000 0.0000 0.0000 0.0000
0.0000 100.0000 0.0000 5.0000 0.0000 0.0000 12.9904 0.0000 0.0000 0.0000 0.0000 0.0000 0.0000 0.0000 0.0000 0.0000 0.0000 0.0000 0.0000 0.0000 0.0000 0.0000 -74.6410 0.0000 0.0000 -25.9808 0.0000 0.0000 0.0000 0.0000 0.0000 0.0000 0.0000 0.0000 -74.6410 0.0000 0.0000 25.9808 0.0000 0.0000 0.0000 0.0000 0.0000 0.0000 0.0000 0.0000 0.0000 0.0000 0.0000 0.0000 0.0000 0.0000 0.0000 0.0000 0.0000 0.0000 0.0000 0.0000 0.0000 0.0000
0.0000 100.0000 0.0000 5.5557 0.0000 0.0000 13.8582 0.0000 0.0000 0.0000 0.0000 0.0000 0.0000 0.0000 0.0000 0.0000 0.0000 0.0000 0.0000 0.0000 0.0000 0.0000 -76.9552 0.0000 0.0000 -27.7164 0.0000 0.0000 0.0000 0.0000 0.0000 0.0000 0.0000 0.0000 -76.9552 0.0000 0.0000 27.7164 0.0000 0.0000 0.0000 0.0000 0.0000 0.0000 0.0000 0.0000 0.0000 0.0000 0.0000 0.0000 0.0000 0.0000 0.0000 0.0000 0.0000 0.0000 0.0000 0.0000 0.0000 0.0000
0.0000 100.0000 0.0000 6.0876 0.0000 0.0000 14.4889 0.0000 0.0000 0.0000 0.0000 0.0000 0.0000 0.0000 0.0000 0.0000 0.0000 0.0000 0.0000 0.0000 0.0000 0.0000 -78.6370 0.0000 0.0000 -28.9778 0.0000 0.0000 0.0000 0.0000 0.0000 0.0000 0.0000 0.0000 -78.6370 0.0000 0.0000 28.9778 0.0000 0.0000 0.0000 0.0000 0.0000 0.0000 0.0000 0.0000 0.0000 0.0000 0.0000 0.0000 0.0000 0.0000 0.0000 0.0000 0.0000 0.0000 0.0000 0.0000 0.0000 0.0000
0.0000 100.0000 0.0000 6.5935 0.0000 0.0000 14.8717 0.0000 0.0000 0.0000 0.0000 0.0000 0.0000 0.0000 0.0000 0.0000 0.0000 0.0000 0.0000 0.0000 0.0000 0.0000 -79.6578 0.0000 0.0000 -29.7433 0.0000 0.0000 0.0000 0.0000 0.0000 0.0000 0.0000 0.0000 -79.6578 0.0000 0.0000 29.7433 0.0000 0.0000 0.0000 0.0000 0.0000 0.0000 0.0000 0.0000 0.0000 0.0000 0.0000 0.0000 0.0000 0.0000 0.0000 0.0000 0.0000 0.0000 0.0000 0.0000 0.0000 0.0000
0.0000 100.0000 0.0000 7.0711 0.0000 0.0000 15.0000 0.0000 0.0000 0.0000 0.0000 0.0000 0.0000 0.0000 0.0000 0.0000 0.0000 0.0000 0.0000 0.0000 0.0000 0.0000 -80.0000 0.0000 0.0000 -30.0000 0.0000 0.0000 0.0000 0.0000 0.0000 0.0000 0.0000 0.0000 -80.0000 0.0000 0.0000 30.0000 0.0000 0.0000 0.0000 0.0000 0.0000 0.0000 0.0000 0.0000 0.0000 0.0000 0.0000 0.0000 0.0000 0.0000 0.0000 0.0000 0.0000 0.0000 0.0000 0.0000 0.0000 0.0000
0.0000 100.0000 0.0000 7.5184 0.0000 0.0000 14.8717 0.0000 0.0000 0.0000 0.0000 0.0000 0.0000 0.0000 0.0000 0.0000 0.0000 0.0000 0.0000 0.0000 0.0000 0.0000 -79.6578 0.0000 0.0000 -29.7433 0.0000 0.0000 0.0000 0.0000 0.0000 0.0000 0.0000 0.0000 -79.6578 0.0000 0.0000 29.7433 0.0000 0.0000 0.0000 0.0000 0.0000 0.0000 0.0000 0.0000 0.0000 0.0000 0.0000 0.0000 0.0000 0.0000 0.0000 0.0000 0.0000 0.0000 0.0000 0.0000 0.0000 0.0000
0.0000 100.0000 0.0000 7.9335 0.0000 0.0000 14.4889 0.0000 0.0000 0.0000 0.0000 0.0000 0.0000 0.0000 0.0000 0.0000 0.0000 0.0000 0.0000 0.0000 0.0000 0.0000 -78.6370 0.0000 0.0000 -28.9778 0.0000 0.0000 0.0000 0.0000 0.0000 0.0000 0.0000 0.0000 -78.6370 0.0000 0.0000 28.9778 0.0000 0.0000 0.0000 0.0000 0.0000 0.0000 0.0000 0.0000 0.0000 0.0000 0.0000 0.0000 0.0000 0.0000 0.0000 0.0000 0.0000 0.0000 0.0000 0.0000 0.0000 0.0000
0.0000 100.0000 0.0000 8.3147 0.0000 0.0000 13.8582 0.0000 0.0000 0.0000 0.0000 0.0000 0.0000 0.0000 0.0000 0.0000 0.0000 0.0000 0.0000 0.0000 0.0000 0.0000 -76.9552 0.0000 0.0000 -27.7164 0.0000 0.0000 0.0000 0.0000 0.0000 0.0000 0.0000 0.0000 -76.9552 0.0000 0.0000 27.7164 0.0000 0.0000 0.0000 0.0000 0.0000 0.0000 0.0000 0.0000 0.0000 0.0000 0.0000 0.0000 0.0000 0.0000 0.0000 0.0000 0.0000 0.0000 0.0000 0.0000 0.0000 0.0000
